<?xml version="1.0" encoding="UTF-8" standalone="no"?>
<svg
   xmlns:dc="http://purl.org/dc/elements/1.1/"
   xmlns:cc="http://creativecommons.org/ns#"
   xmlns:rdf="http://www.w3.org/1999/02/22-rdf-syntax-ns#"
   xmlns:svg="http://www.w3.org/2000/svg"
   xmlns="http://www.w3.org/2000/svg"
   viewBox="0 0 119.26288 31.842459"
   height="31.842459"
   width="119.26288"
   xml:space="preserve"
   version="1.1"
   id="svg4136"><metadata
     id="metadata4142"><rdf:RDF><cc:Work
         rdf:about=""><dc:format>image/svg+xml</dc:format><dc:type
           rdf:resource="http://purl.org/dc/dcmitype/StillImage" /><dc:title></dc:title></cc:Work></rdf:RDF></metadata><defs
     id="defs4140" /><g
     transform="matrix(1.25,0,0,-1.25,-46.628375,91.247638)"
     id="g4144"><g
       transform="scale(0.1,0.1)"
       id="g4146"><path
         id="path4278"
         style="fill:#ffffff;fill-opacity:1;fill-rule:nonzero;stroke:none"
         d="m 425.094,475.242 -52.067,0 0,201.028 c 0,-0.231 0,37.929 38.094,50.64 34.359,11.024 57.336,-11.18 57.371,-11.113 L 640.129,530.191 c 8.617,-5.324 12.121,0.219 12.039,5.317 l 0,191.402 52.543,0 0,-199.605 c -0.231,-16.992 -14.285,-38.082 -34.215,-46.301 -20.433,-7.93 -42.855,-7.863 -69.422,14.48 L 440.523,669.988 c -4.218,4.559 -15.253,5.051 -15.429,-3.851 l 0,-190.895" /><path
         id="path4280"
         style="fill:#ffffff;fill-opacity:1;fill-rule:nonzero;stroke:none"
         d="m 738.473,726.91 52.543,0 0,-180.34 c -0.161,-19.187 15.886,-19.187 31.82,-19.265 l 233.334,0 c 9.73,0.078 20.8,11.547 20.73,23.125 0.07,12.019 -11.19,24.164 -21.69,24.113 l -151.87,0 c -26.121,-0.953 -80.348,23.156 -80.504,74.266 0.156,62.367 51.394,76.445 74.742,78.101 l 429.552,0 0,-53.039 -107.54,0 0,-198.629 -52.04,0 0,198.629 -263.253,0 c -25.067,2.168 -43.125,-41.019 -1.926,-47.266 l 161.509,0 c 24.27,0.227 64.43,-20.894 64.59,-73.277 -0.16,-53.051 -31.27,-78.168 -64.59,-78.086 l -238.638,0 c -39.418,-0.082 -53.547,8.887 -67.5,22.168 -12.929,12.774 -15.097,19.942 -19.269,46.285 l 0,183.215" /></g></g></svg>