<?xml version="1.0" encoding="UTF-8" standalone="no"?>
<svg
   xmlns:dc="http://purl.org/dc/elements/1.1/"
   xmlns:cc="http://creativecommons.org/ns#"
   xmlns:rdf="http://www.w3.org/1999/02/22-rdf-syntax-ns#"
   xmlns:svg="http://www.w3.org/2000/svg"
   xmlns="http://www.w3.org/2000/svg"
   viewBox="0 0 315.14999 11.028812"
   height="11.028812"
   width="315.14999"
   xml:space="preserve"
   version="1.1"
   id="svg8950"><metadata
     id="metadata8956"><rdf:RDF><cc:Work
         rdf:about=""><dc:format>image/svg+xml</dc:format><dc:type
           rdf:resource="http://purl.org/dc/dcmitype/StillImage" /><dc:title></dc:title></cc:Work></rdf:RDF></metadata><defs
     id="defs8954"><clipPath
       id="clipPath8966"
       clipPathUnits="userSpaceOnUse"><path
         id="path8968"
         d="m 0,0 2521.2,0 0,88.2305 L 0,88.2305 0,0 Z" /></clipPath></defs><g
     transform="matrix(1.25,0,0,-1.25,0,11.028812)"
     id="g8958"><g
       style="fill:#ffffff"
       transform="scale(0.1,0.1)"
       id="g8960"><g
         style="fill:#ffffff"
         id="g8962"><g
           style="fill:#ffffff"
           clip-path="url(#clipPath8966)"
           id="g8964"><path
             id="path8970"
             style="fill:#ffffff;fill-opacity:1;fill-rule:nonzero;stroke:none"
             d="m 53.6875,86.9102 28.1641,0 0,-85.59379 -17.1641,0 0,68.21089 -0.2187,0 -15.8399,-68.21089 -15.4062,0 -15.8399,68.21089 -0.2187,0 0,-68.21089 -17.1641,0 0,85.59379 28.1641,0 12.6523,-61.3868 0.2188,0 12.6523,61.3868" /><path
             id="path8972"
             style="fill:#ffffff;fill-opacity:1;fill-rule:nonzero;stroke:none"
             d="m 137.172,72.168 -0.438,0 -9.019,-35.8633 18.48,0 -9.023,35.8633 z m 35.539,-70.85159 -17.492,0 -5.614,21.45699 -25.304,0 -5.61,-21.45699 -17.492,0 23.989,85.59379 23.097,0 24.426,-85.59379" /><path
             id="path8974"
             style="fill:#ffffff;fill-opacity:1;fill-rule:nonzero;stroke:none"
             d="m 242.004,72.3867 -22.231,0 0,-71.07029 -17.156,0 0,71.07029 -22.226,0 0,14.5235 61.613,0 0,-14.5235" /><path
             id="path8976"
             style="fill:#ffffff;fill-opacity:1;fill-rule:nonzero;stroke:none"
             d="m 316.254,72.3867 -36.082,0 0,-20.4648 29.922,0 0,-14.5196 -29.922,0 0,-21.5625 38.172,0 0,-14.52339 -55.336,0 0,85.59379 53.246,0 0,-14.5235" /><path
             id="path8978"
             style="fill:#ffffff;fill-opacity:1;fill-rule:nonzero;stroke:none"
             d="m 367.953,51.375 c 7.481,0 18.922,-0.4375 18.922,10.2305 0,11.7734 -11.555,10.7812 -20.023,10.7812 l -6.379,0 0,-21.0117 7.48,0 z m 9.133,35.5352 c 19.691,0 27.391,-14.0821 27.391,-24.9727 0,-9.3477 -5.829,-18.0391 -14.52,-21.5625 l 17.051,-39.05859 -18.043,0 -15.402,35.53909 -13.09,0 0,-35.53909 -17.16,0 0,85.59379 33.773,0" /><path
             id="path8980"
             style="fill:#ffffff;fill-opacity:1;fill-rule:nonzero;stroke:none"
             d="m 430.098,1.31641 17.1641,0 0,85.5938 -17.1641,0 0,-85.5938 z" /><path
             id="path8982"
             style="fill:#ffffff;fill-opacity:1;fill-rule:nonzero;stroke:none"
             d="m 502.59,72.168 -0.442,0 -9.019,-35.8633 18.48,0 -9.019,35.8633 z m 35.535,-70.85159 -17.488,0 -5.614,21.45699 -25.304,0 -5.614,-21.45699 -17.488,0 23.985,85.59379 23.097,0 24.426,-85.59379" /><path
             id="path8984"
             style="fill:#ffffff;fill-opacity:1;fill-rule:nonzero;stroke:none"
             d="m 574.633,15.8398 35.644,0 0,-14.52339 -52.804,0 0,85.59379 17.16,0 0,-71.0704" /><path
             id="path8986"
             style="fill:#ffffff;fill-opacity:1;fill-rule:nonzero;stroke:none"
             d="m 735.238,86.9102 28.164,0 0,-85.59379 -17.164,0 0,68.21089 -0.218,0 -15.84,-68.21089 -15.407,0 -15.835,68.21089 -0.223,0 0,-68.21089 -17.16,0 0,85.59379 28.164,0 12.648,-61.3868 0.223,0 12.648,61.3868" /><path
             id="path8988"
             style="fill:#ffffff;fill-opacity:1;fill-rule:nonzero;stroke:none"
             d="m 842.816,72.3867 -36.082,0 0,-20.4648 29.922,0 0,-14.5196 -29.922,0 0,-21.5625 38.172,0 0,-14.52339 -55.336,0 0,85.59379 53.246,0 0,-14.5235" /><path
             id="path8990"
             style="fill:#ffffff;fill-opacity:1;fill-rule:nonzero;stroke:none"
             d="m 899.023,72.168 -0.437,0 -9.02,-35.8633 18.481,0 -9.024,35.8633 z m 35.54,-70.85159 -17.493,0 -5.609,21.45699 -25.309,0 -5.609,-21.45699 -17.492,0 23.984,85.59379 23.102,0 24.426,-85.59379" /><path
             id="path8992"
             style="fill:#ffffff;fill-opacity:1;fill-rule:nonzero;stroke:none"
             d="m 993.848,61.7188 c -1.653,5.9375 -4.953,11.9921 -11.883,11.9921 -5.613,0 -10.449,-4.0742 -10.449,-9.9023 0,-16.8359 40.264,-5.832 40.264,-37.7344 C 1011.78,15.6211 1003.86,0 982.734,0 966.449,0 954.68,7.91797 952.043,24.6445 l 17.16,2.5274 c 1.539,-7.2578 5.277,-12.6485 13.418,-12.6485 6.715,0 12.324,3.5196 12.324,10.8868 0,17.164 -40.265,7.2617 -40.265,36.414 0,15.4063 12.98,26.4063 27.836,26.4063 14.519,0 25.414,-9.3477 26.844,-23.7617 l -15.512,-2.75" /><path
             id="path8994"
             style="fill:#ffffff;fill-opacity:1;fill-rule:nonzero;stroke:none"
             d="m 1095.92,86.9102 0,-59.1836 C 1095.92,10.1172 1083.82,0 1065.79,0 c -18.05,0 -30.15,10.1172 -30.15,27.7266 l 0,59.1836 17.16,0 0,-53.6875 c 0,-14.3008 4.29,-18.6993 12.99,-18.6993 8.69,0 12.97,4.3985 12.97,18.6993 l 0,53.6875 17.16,0" /><path
             id="path8996"
             style="fill:#ffffff;fill-opacity:1;fill-rule:nonzero;stroke:none"
             d="m 1146.19,51.375 c 7.48,0 18.92,-0.4375 18.92,10.2305 0,11.7734 -11.55,10.7812 -20.03,10.7812 l -6.37,0 0,-21.0117 7.48,0 z m 9.13,35.5352 c 19.68,0 27.39,-14.0821 27.39,-24.9727 0,-9.3477 -5.83,-18.0391 -14.52,-21.5625 l 17.05,-39.05859 -18.04,0 -15.41,35.53909 -13.08,0 0,-35.53909 -17.17,0 0,85.59379 33.78,0" /><path
             id="path8998"
             style="fill:#ffffff;fill-opacity:1;fill-rule:nonzero;stroke:none"
             d="m 1261.59,72.3867 -36.09,0 0,-20.4648 29.92,0 0,-14.5196 -29.92,0 0,-21.5625 38.18,0 0,-14.52339 -55.35,0 0,85.59379 53.26,0 0,-14.5235" /><path
             id="path9000"
             style="fill:#ffffff;fill-opacity:1;fill-rule:nonzero;stroke:none"
             d="m 1342.31,86.9102 28.17,0 0,-85.59379 -17.15,0 0,68.21089 -0.23,0 -15.84,-68.21089 -15.39,0 -15.86,68.21089 -0.22,0 0,-68.21089 -17.17,0 0,85.59379 28.17,0 12.65,-61.3868 0.22,0 12.65,61.3868" /><path
             id="path9002"
             style="fill:#ffffff;fill-opacity:1;fill-rule:nonzero;stroke:none"
             d="m 1449.89,72.3867 -36.07,0 0,-20.4648 29.92,0 0,-14.5196 -29.92,0 0,-21.5625 38.16,0 0,-14.52339 -55.33,0 0,85.59379 53.24,0 0,-14.5235" /><path
             id="path9004"
             style="fill:#ffffff;fill-opacity:1;fill-rule:nonzero;stroke:none"
             d="m 1502.04,86.9102 25.63,-56.4375 0.21,0 0,56.4375 17.17,0 0,-85.59379 -18.38,0 -32.34,68.76169 -0.22,0 0,-68.76169 -17.17,0 0,85.59379 25.1,0" /><path
             id="path9006"
             style="fill:#ffffff;fill-opacity:1;fill-rule:nonzero;stroke:none"
             d="m 1627.76,72.3867 -22.22,0 0,-71.07029 -17.15,0 0,71.07029 -22.23,0 0,14.5235 61.6,0 0,-14.5235" /><path
             id="path9008"
             style="fill:#ffffff;fill-opacity:1;fill-rule:nonzero;stroke:none"
             d="m 1714.44,15.8398 35.65,0 0,-14.52339 -52.81,0 0,85.59379 17.16,0 0,-71.0704" /><path
             id="path9010"
             style="fill:#ffffff;fill-opacity:1;fill-rule:nonzero;stroke:none"
             d="m 1802,72.168 -0.43,0 -9.02,-35.8633 18.48,0 -9.03,35.8633 z m 35.55,-70.85159 -17.5,0 -5.61,21.45699 -25.31,0 -5.6,-21.45699 -17.5,0 23.98,85.59379 23.11,0 24.43,-85.59379" /><path
             id="path9012"
             style="fill:#ffffff;fill-opacity:1;fill-rule:nonzero;stroke:none"
             d="m 1885.17,14.8477 c 5.15,0 15.17,-0.6602 15.17,12.3242 0,11.6601 -9.69,13.2031 -26.29,11.9922 l 0,-24.3164 11.12,0 z m -11.12,37.2968 c 12.64,0 24.63,-1.4257 24.63,10.3399 0,12.2109 -12.54,10.8945 -24.63,10.8945 l 0,-21.2344 z m -17.17,-50.82809 0,85.59379 24.65,0 c 27.72,0 34.77,-9.6797 34.77,-23.543 0,-8.0313 -3.87,-13.8594 -10.78,-17.7109 7.81,-3.7422 12.42,-11.1172 12.42,-19.6954 0,-14.7382 -11.99,-24.64449 -27.62,-24.64449 l -33.44,0" /><path
             id="path9014"
             style="fill:#ffffff;fill-opacity:1;fill-rule:nonzero;stroke:none"
             d="m 1958.31,44.1172 c 0,-11.0039 2.97,-30.5859 17.72,-30.5859 14.74,0 17.71,19.582 17.71,30.5859 0,11 -2.97,30.5781 -17.71,30.5781 -14.75,0 -17.72,-19.5781 -17.72,-30.5781 z m 53.03,0 C 2011.34,22.5547 2000.46,0 1976.03,0 c -24.42,0 -35.32,22.5547 -35.32,44.1172 0,21.5625 10.9,44.1133 35.32,44.1133 24.43,0 35.31,-22.5508 35.31,-44.1133" /><path
             id="path9016"
             style="fill:#ffffff;fill-opacity:1;fill-rule:nonzero;stroke:none"
             d="m 2060.4,51.375 c 7.48,0 18.93,-0.4375 18.93,10.2305 0,11.7734 -11.57,10.7812 -20.04,10.7812 l -6.37,0 0,-21.0117 7.48,0 z m 9.12,35.5352 c 19.69,0 27.4,-14.0821 27.4,-24.9727 0,-9.3477 -5.84,-18.0391 -14.53,-21.5625 l 17.05,-39.05859 -18.02,0 -15.41,35.53909 -13.09,0 0,-35.53909 -17.17,0 0,85.59379 33.77,0" /><path
             id="path9018"
             style="fill:#ffffff;fill-opacity:1;fill-rule:nonzero;stroke:none"
             d="m 2151.69,72.168 -0.43,0 -9.02,-35.8633 18.47,0 -9.02,35.8633 z m 35.55,-70.85159 -17.5,0 -5.61,21.45699 -25.31,0 -5.61,-21.45699 -17.5,0 23.99,85.59379 23.1,0 24.44,-85.59379" /><path
             id="path9020"
             style="fill:#ffffff;fill-opacity:1;fill-rule:nonzero;stroke:none"
             d="m 2256.53,72.3867 -22.22,0 0,-71.07029 -17.17,0 0,71.07029 -22.23,0 0,14.5235 61.62,0 0,-14.5235" /><path
             id="path9022"
             style="fill:#ffffff;fill-opacity:1;fill-rule:nonzero;stroke:none"
             d="m 2293.49,44.1172 c 0,-11.0039 2.97,-30.5859 17.71,-30.5859 14.73,0 17.7,19.582 17.7,30.5859 0,11 -2.97,30.5781 -17.7,30.5781 -14.74,0 -17.71,-19.5781 -17.71,-30.5781 z m 53.02,0 C 2346.51,22.5547 2335.62,0 2311.2,0 c -24.43,0 -35.33,22.5547 -35.33,44.1172 0,21.5625 10.9,44.1133 35.33,44.1133 24.42,0 35.31,-22.5508 35.31,-44.1133" /><path
             id="path9024"
             style="fill:#ffffff;fill-opacity:1;fill-rule:nonzero;stroke:none"
             d="m 2395.56,51.375 c 7.48,0 18.92,-0.4375 18.92,10.2305 0,11.7734 -11.54,10.7812 -20.02,10.7812 l -6.38,0 0,-21.0117 7.48,0 z m 9.14,35.5352 c 19.68,0 27.38,-14.0821 27.38,-24.9727 0,-9.3477 -5.82,-18.0391 -14.51,-21.5625 l 17.05,-39.05859 -18.05,0 -15.41,35.53909 -13.08,0 0,-35.53909 -17.17,0 0,85.59379 33.79,0" /><path
             id="path9026"
             style="fill:#ffffff;fill-opacity:1;fill-rule:nonzero;stroke:none"
             d="m 2492.8,35.8633 0,-34.54689 -17.15,0 0,34.54689 -28.06,51.0469 18.26,0 18.5,-37.625 19.14,37.625 17.71,0 -28.4,-51.0469" /></g></g></g></g></svg>